<svg width="149" height="112" viewBox="0 0 149 112" fill="none" xmlns="http://www.w3.org/2000/svg">
<path d="M0.839844 103.991H5.45551V104.899H1.8091V107.03H5.20236V107.938H1.8091V110.229H5.63583V111.138H0.839844V103.991Z" fill="#F5FAFD"/>
<path d="M9.56424 103.991H11.0086L13.28 109.401H13.3199L15.5722 103.991H17.0148V111.138H16.0456V105.263H16.0248L13.6112 111.138H12.9644L10.5526 105.263H10.5318V111.138H9.5625V103.991H9.56424Z" fill="#F5FAFD"/>
<path d="M21.4099 103.991H23.9241C24.3819 103.991 24.7581 104.054 25.0546 104.177C25.3511 104.301 25.5835 104.459 25.7568 104.652C25.9285 104.844 26.0481 105.059 26.1158 105.298C26.1834 105.537 26.2163 105.768 26.2163 105.99C26.2163 106.212 26.1817 106.442 26.1158 106.68C26.0481 106.919 25.9302 107.134 25.7568 107.326C25.5852 107.518 25.3511 107.676 25.0546 107.801C24.7581 107.924 24.3819 107.986 23.9241 107.986H22.3775V111.136H21.4082V103.99L21.4099 103.991ZM22.3792 107.141H23.6519C23.8409 107.141 24.0281 107.125 24.2137 107.094C24.3992 107.064 24.5639 107.007 24.7078 106.927C24.8535 106.846 24.9697 106.73 25.0563 106.579C25.143 106.428 25.1864 106.231 25.1864 105.99C25.1864 105.749 25.143 105.549 25.0563 105.399C24.9697 105.246 24.8517 105.132 24.7078 105.05C24.5639 104.971 24.3992 104.913 24.2137 104.884C24.0281 104.853 23.8409 104.837 23.6519 104.837H22.3792V107.139V107.141Z" fill="#F5FAFD"/>
<path d="M33.3043 111.319C32.7598 111.319 32.2587 111.224 31.801 111.032C31.3415 110.839 30.9514 110.576 30.6237 110.24C30.2977 109.903 30.0411 109.506 29.8556 109.047C29.67 108.589 29.5781 108.095 29.5781 107.563C29.5781 107.031 29.6718 106.537 29.8556 106.081C30.0411 105.622 30.296 105.227 30.6237 104.889C30.9496 104.553 31.3415 104.289 31.801 104.097C32.2587 103.904 32.7598 103.809 33.3043 103.809C33.8487 103.809 34.3516 103.904 34.8093 104.097C35.2688 104.289 35.6589 104.553 35.9866 104.889C36.3126 105.225 36.5692 105.622 36.7548 106.081C36.9403 106.539 37.0322 107.033 37.0322 107.563C37.0322 108.094 36.9403 108.589 36.7548 109.047C36.5692 109.506 36.3144 109.902 35.9866 110.24C35.6607 110.576 35.2688 110.839 34.8093 111.032C34.3516 111.224 33.8505 111.319 33.3043 111.319ZM33.3043 110.411C33.7152 110.411 34.0863 110.335 34.4157 110.184C34.7452 110.032 35.0295 109.829 35.2653 109.574C35.5012 109.317 35.6832 109.016 35.8098 108.669C35.9381 108.323 36.0023 107.955 36.0023 107.563C36.0023 107.172 35.9381 106.806 35.8098 106.459C35.6832 106.113 35.5012 105.811 35.2653 105.554C35.0295 105.298 34.7469 105.095 34.4157 104.944C34.0863 104.794 33.717 104.717 33.3043 104.717C32.8916 104.717 32.524 104.794 32.1929 104.944C31.8634 105.097 31.5808 105.3 31.345 105.554C31.1092 105.811 30.9271 106.113 30.8005 106.459C30.6722 106.806 30.6081 107.173 30.6081 107.563C30.6081 107.953 30.6722 108.323 30.8005 108.669C30.9271 109.016 31.1092 109.317 31.345 109.574C31.5808 109.83 31.8634 110.033 32.1929 110.184C32.5223 110.335 32.8934 110.411 33.3043 110.411Z" fill="#F5FAFD"/>
<path d="M40.1406 103.991H41.1498L42.7294 109.704H42.7502L44.432 103.991H45.5435L47.2254 109.704H47.2462L48.8258 103.991H49.8366L47.756 111.138H46.726L44.999 105.303H44.9782L43.2617 111.138H42.2317L40.1424 103.991H40.1406Z" fill="#F5FAFD"/>
<path d="M53.3887 103.991H58.0043V104.899H54.3579V107.03H57.7512V107.938H54.3579V110.229H58.1847V111.138H53.3887V103.991Z" fill="#F5FAFD"/>
<path d="M62.1814 103.991H64.6956C65.1533 103.991 65.5296 104.054 65.8261 104.177C66.1226 104.301 66.3549 104.459 66.5283 104.652C66.7 104.844 66.8196 105.059 66.8872 105.298C66.9549 105.537 66.9878 105.768 66.9878 105.99C66.9878 106.212 66.9462 106.439 66.8664 106.65C66.7849 106.862 66.6688 107.054 66.5179 107.227C66.3671 107.399 66.1815 107.543 65.9631 107.661C65.7446 107.778 65.5001 107.849 65.2314 107.877L67.26 111.138H66.048L64.2309 107.988H63.1489V111.138H62.1797V103.991H62.1814ZM63.1507 107.141H64.4234C64.6124 107.141 64.7996 107.125 64.9851 107.094C65.1707 107.064 65.3354 107.007 65.4793 106.927C65.625 106.846 65.7411 106.73 65.8278 106.579C65.9145 106.428 65.9579 106.231 65.9579 105.99C65.9579 105.749 65.9145 105.549 65.8278 105.399C65.7411 105.246 65.6232 105.132 65.4793 105.05C65.3354 104.971 65.1707 104.913 64.9851 104.884C64.7996 104.853 64.6124 104.837 64.4234 104.837H63.1507V107.139V107.141Z" fill="#F5FAFD"/>
<path d="M78.0953 108.09L75.3887 103.993H76.6319L78.5791 107.132L80.5887 103.993H81.7695L79.0628 108.09V111.139H78.0918V108.09H78.0953Z" fill="#F5FAFD"/>
<path d="M88.4974 111.319C87.9495 111.319 87.4502 111.224 86.9924 111.032C86.5347 110.839 86.1428 110.576 85.8151 110.24C85.4891 109.903 85.2325 109.506 85.047 109.047C84.8614 108.589 84.7695 108.095 84.7695 107.563C84.7695 107.031 84.8632 106.537 85.047 106.081C85.2325 105.622 85.4874 105.227 85.8151 104.889C86.1428 104.553 86.5347 104.289 86.9924 104.097C87.4502 103.904 87.9495 103.809 88.4974 103.809C89.0453 103.809 89.5447 103.904 90.0025 104.097C90.4602 104.289 90.8521 104.553 91.1763 104.889C91.504 105.225 91.7606 105.622 91.9444 106.081C92.1282 106.539 92.2219 107.033 92.2219 107.563C92.2219 108.094 92.1282 108.589 91.9444 109.047C91.7606 109.506 91.504 109.902 91.1763 110.24C90.8503 110.576 90.4602 110.839 90.0025 111.032C89.5447 111.224 89.0419 111.319 88.4974 111.319ZM88.4974 110.411C88.9084 110.411 89.2777 110.335 89.6054 110.184C89.9348 110.032 90.2192 109.829 90.455 109.574C90.6908 109.317 90.8746 109.016 91.0029 108.669C91.1295 108.323 91.1937 107.955 91.1937 107.563C91.1937 107.172 91.1295 106.806 91.0029 106.459C90.8764 106.113 90.6908 105.811 90.455 105.554C90.2192 105.298 89.9366 105.095 89.6054 104.944C89.2777 104.794 88.9066 104.717 88.4974 104.717C88.0882 104.717 87.7137 104.794 87.3843 104.944C87.0566 105.097 86.7739 105.3 86.5381 105.554C86.3023 105.811 86.1203 106.113 85.9937 106.459C85.8671 106.806 85.7995 107.173 85.7995 107.563C85.7995 107.953 85.8654 108.323 85.9937 108.669C86.1203 109.016 86.3023 109.317 86.5381 109.574C86.7739 109.83 87.0566 110.033 87.3843 110.184C87.7137 110.335 88.0865 110.411 88.4974 110.411Z" fill="#F5FAFD"/>
<path d="M97.0827 103.991V108.373C97.0827 108.595 97.1105 108.825 97.1729 109.063C97.2336 109.302 97.3324 109.522 97.4746 109.723C97.6168 109.924 97.8023 110.089 98.0312 110.219C98.2601 110.345 98.5427 110.41 98.8808 110.41C99.2189 110.41 99.4981 110.345 99.7304 110.219C99.9576 110.091 100.143 109.926 100.285 109.723C100.427 109.522 100.528 109.302 100.589 109.063C100.648 108.825 100.679 108.593 100.679 108.373V103.991H101.648V108.524C101.648 108.941 101.577 109.319 101.437 109.659C101.294 110 101.1 110.295 100.849 110.543C100.601 110.791 100.31 110.983 99.9714 111.118C99.6368 111.254 99.2709 111.32 98.8825 111.32C98.4941 111.32 98.1283 111.252 97.7937 111.118C97.4538 110.983 97.1625 110.793 96.9111 110.543C96.6631 110.295 96.4672 110 96.3268 109.659C96.1846 109.319 96.1152 108.941 96.1152 108.524V103.991H97.0862H97.0827Z" fill="#F5FAFD"/>
<path d="M105.976 103.991H108.491C108.948 103.991 109.325 104.054 109.623 104.177C109.918 104.301 110.152 104.459 110.323 104.652C110.495 104.844 110.613 105.059 110.682 105.298C110.75 105.537 110.783 105.768 110.783 105.99C110.783 106.212 110.741 106.439 110.66 106.65C110.58 106.862 110.464 107.054 110.311 107.227C110.16 107.399 109.976 107.543 109.756 107.661C109.538 107.778 109.293 107.849 109.025 107.877L111.055 111.138H109.843L108.024 107.988H106.942V111.138H105.975V103.991H105.976ZM106.942 107.141H108.215C108.404 107.141 108.593 107.125 108.777 107.094C108.96 107.064 109.125 107.007 109.272 106.927C109.416 106.846 109.533 106.73 109.621 106.579C109.706 106.428 109.751 106.231 109.751 105.99C109.751 105.749 109.706 105.549 109.621 105.399C109.531 105.246 109.416 105.132 109.272 105.05C109.127 104.971 108.96 104.913 108.777 104.884C108.593 104.853 108.404 104.837 108.215 104.837H106.942V107.139V107.141Z" fill="#F5FAFD"/>
<path d="M120.205 103.991H121.173V110.229H124.455V111.138H120.205V103.991Z" fill="#F5FAFD"/>
<path d="M128.07 103.991H129.041V111.138H128.07V103.991Z" fill="#F5FAFD"/>
<path d="M133.502 103.991H137.996V104.899H134.473V107.141H137.75V108.049H134.473V111.138H133.502V103.991Z" fill="#F5FAFD"/>
<path d="M141.924 103.991H146.536V104.899H142.89V107.03H146.281V107.938H142.89V110.229H146.72V111.138H141.924V103.991Z" fill="#F5FAFD"/>
<path d="M92.2908 8.20881C91.6285 9.63183 91.3129 11.1779 91.3563 12.7483L95.1119 13.2994L94.401 17.0416L97.8723 18.5807L96.239 22.0005L99.2144 24.3265L96.832 27.2523L99.2074 30.1833L96.2511 32.5145L97.9469 35.8667L94.5813 37.5358L95.5593 41.1601L91.9337 42.1186L92.1695 45.8659L88.4208 46.0757L87.8694 49.8039L84.1519 49.2094L82.8098 52.7349L79.3022 51.3188L77.1556 54.4474L74.0935 52.208L71.2048 54.6935L68.8345 51.7001L65.3633 53.2965L63.9345 49.7467L60.1477 50.2841L59.7887 46.4813L56.0158 45.9249L56.7215 42.1827L53.2502 40.6488L54.8905 37.229L51.9081 34.8978L54.2905 31.972L51.9203 29.0462L54.8714 26.715L53.1756 23.3576L56.5411 21.6937L55.5632 18.0694L59.1888 17.104L58.953 13.3566L62.7086 13.1469L63.2531 9.42383L66.9706 10.0114L68.3196 6.48593L71.8203 7.90202L73.9669 4.77866L77.0359 7.01805L79.9194 4.53253L82.2758 7.50163C83.7115 6.72859 84.9478 5.64009 85.9014 4.31761C82.4561 2.80792 78.6502 1.96729 74.6553 1.96729C59.1645 1.96729 46.5625 14.5647 46.5625 30.0498C46.5625 44.1985 70.4228 68.577 74.6553 72.782C78.8808 68.577 102.748 44.1985 102.748 30.0498C102.748 21.2378 98.6647 13.3653 92.2926 8.20707L92.2908 8.20881Z" fill="#F5FAFD"/>
<path d="M96.4391 29.9007L93.7845 31.9963L95.3242 35.0486L92.2448 36.5617L93.1481 39.8515L89.8294 40.7545L90.041 44.1517L86.6425 44.3372L86.164 47.7067L82.7932 47.1763L81.5726 50.3603L78.4394 49.0863L76.5286 51.8734L73.8203 49.8836L71.2714 52.0866L69.2011 49.459L66.1477 50.8387L64.8993 47.7344L61.6083 48.2128L61.2893 44.8953L58.5289 44.4706L58.7145 41.1531L55.5293 39.7475L56.9892 36.6952L54.3086 34.5996L56.4586 31.972L54.3086 29.3443L56.9892 27.2211L55.4495 24.1688L58.5029 22.6556L57.6273 19.3659L60.9183 18.4906L60.705 15.0934L64.1295 14.8819L64.608 11.5124L68.0065 12.2023L68.9358 8.88477L72.3343 10.1587L74.2191 7.37335L76.9534 9.33715L79.5023 7.16189L81.5726 9.78954L81.6523 9.76354C82.873 9.15342 84.3069 8.51558 85.3421 7.58828C86.7223 6.34032 87.6516 4.66944 88.633 3.1043C89.2971 2.09553 89.9075 1.03476 90.5438 0C91.2877 0.504383 92.4823 1.22023 93.677 1.83034C93.5972 1.83034 91.0484 6.15486 90.8628 6.55351C89.7479 8.70277 89.1636 11.171 89.4029 13.6114L89.4826 14.355L92.7736 14.8334L92.1633 18.1231L95.2427 19.4768L93.7827 22.5291L96.4374 24.6246L94.3133 27.2523L96.4374 29.9059L96.4391 29.9007Z" fill="#78A240"/>
<path d="M91.428 17.5233L91.3951 15.7086L89.6074 15.1453C90.1709 15.6878 91.0136 16.5995 91.4298 17.5251L91.428 17.5233Z" fill="#97BB41"/>
<path d="M92.1777 19.1597L93.5839 20.1667L92.7413 21.9936C92.7413 21.9936 92.7413 20.3539 92.1795 19.1597H92.1777Z" fill="#97BB41"/>
<path d="M93.043 23.4685C93.043 23.4685 93.4175 25.389 93.2302 26.5364L94.307 24.8499L93.043 23.4685Z" fill="#97BB41"/>
<path d="M93.3246 28.0808L94.195 29.5888L92.9258 30.7501C92.9258 30.7501 93.2275 29.9233 93.3246 28.0808Z" fill="#97BB41"/>
<path d="M92.6226 32.7866L93.1185 34.4558L91.6152 35.2895C91.6152 35.2895 92.1025 34.5546 92.6226 32.7866Z" fill="#97BB41"/>
<path d="M90.9824 37.2637L91.3327 39.0385L89.4375 39.4771C89.4375 39.4771 90.0773 38.8704 90.9824 37.2637Z" fill="#97BB41"/>
<path d="M88.3064 40.9382L88.3463 42.746L86.4043 42.8518C86.4043 42.8518 87.1377 42.3647 88.3064 40.9382Z" fill="#97BB41"/>
<path d="M85.0637 44.124L84.8816 45.9232L82.9414 45.7914C82.9414 45.7914 83.7286 45.398 85.0637 44.124Z" fill="#97BB41"/>
<path d="M81.3971 46.7463L80.8474 48.4692L78.9766 47.9388C78.9766 47.9388 79.8296 47.7152 81.3988 46.7463H81.3971Z" fill="#97BB41"/>
<path d="M77.1497 48.4692L76.2133 50.0171L74.5176 49.0655C74.5176 49.0655 75.3984 49.0482 77.1514 48.4692H77.1497Z" fill="#97BB41"/>
<path d="M72.6945 49.2561L71.6177 50.4105L70.3398 49.2942C70.3398 49.2942 71.0958 49.4364 72.6945 49.2561Z" fill="#97BB41"/>
<path d="M67.878 49.1192L66.5619 49.745L65.9551 48.5715C65.9551 48.5715 66.4423 48.731 67.878 49.1192Z" fill="#97BB41"/>
<path d="M63.7773 47.1781L62.3225 47.2821L62.1855 45.9683C62.1855 45.9683 62.5809 46.2941 63.7755 47.1781H63.7773Z" fill="#97BB41"/>
<path d="M78.6554 15.7503L76.1117 15.5665L76.1534 19.1561L73.1589 19.0192L73.2213 21.7023L70.5129 21.8756L70.8094 24.5449L67.9589 24.8222L68.7565 27.3857L66.1418 28.1882L67.333 30.5594L65.2436 31.6617L66.8128 34.2703L63.5617 34.6967C63.5617 34.6967 65.2852 34.0068 65.5644 33.8162L64.0264 31.4295L66.1643 30.2092L65.0962 27.8433L67.7144 26.9888L66.844 24.1982L70.0222 23.8602L69.7518 21.1286L72.4237 21.1009L72.4133 18.2462L75.387 18.4039L75.2482 14.5682L78.0433 14.7796L78.9259 11.6944L84.1241 13.2179L85.057 9.52606L81.6932 11.2351C81.6932 11.2351 79.2692 9.01475 79.0004 8.65942L77.244 11.2351L74.7367 9.37873C74.7367 9.37873 73.1624 11.6701 73.1069 11.7395L69.9564 10.7064L69.2212 13.809L65.932 13.1607L65.5748 16.35L62.3636 16.376L62.6896 19.4439L59.4263 20.1493L60.484 23.2172L57.1584 24.6385L58.9686 27.6111L56.3105 29.561C56.6937 30.081 58.4033 31.7952 58.4033 31.7952C58.4033 31.7952 56.4249 33.8474 55.9395 34.4038L58.6582 36.2618L57.1792 38.9709L60.3089 40.0716L60.0956 43.3267L62.5664 43.6317L62.3202 40.7406L64.6489 40.3177L64.1374 38.0436L66.3949 37.4093L65.6199 35.3467L68.2918 34.6013L67.5341 32.2164L69.8333 31.582L69.2004 29.1138L71.8099 28.911L71.2134 26.4047L73.8195 26.214L73.2959 23.7042L75.9713 23.4096L75.647 20.6485L78.0815 20.3764L77.9462 17.5217L80.0997 17.4575L80.6615 14.1539L83.6594 13.8852L79.4582 12.7101L78.6623 15.7485L78.6554 15.7503ZM60.1979 37.6744L61.5816 35.7037L59.0865 34.3968L61.3527 32.7294L59.3154 30.8488L61.5816 29.8296L59.9795 27.8468L62.7554 26.7288L61.7446 24.0492L64.2535 23.4217L64.0247 20.6745L66.5059 20.3313L66.3013 17.1906L69.1778 17.3553L69.4587 14.6514L72.0232 15.0084L72.5919 12.4206L76.4238 13.7015C76.4238 13.7015 73.7397 13.2751 73.4606 13.2613L72.8555 15.7173L70.2078 15.4123L70.0933 18.2739L67.4301 18.1976L67.574 21.1719L64.9246 21.3522L65.3979 24.1844L62.9132 24.6316L63.9536 27.1881L61.344 28.1206L62.8786 30.0584L60.6852 31.0291L62.7034 32.8767L60.5152 34.3084L62.7104 35.3484L61.3527 37.307L63.6137 37.6831L60.1979 37.6779V37.6744Z" fill="#97BB41"/>
<path d="M90.2298 24.6957C90.124 22.8117 89.8587 20.8479 89.0091 19.1233C88.4525 17.9828 87.2839 16.4436 85.8499 16.3362C84.6483 16.2738 83.8542 17.4264 83.3306 18.352C82.1688 20.4094 80.8199 22.2536 79.4709 24.1914C76.8631 27.937 74.2778 31.6999 71.696 35.4629C70.4182 37.3261 69.1593 39.2015 67.8658 41.0544C67.122 42.1204 65.4384 43.5988 66.1267 45.0479C66.5515 45.9232 68.3825 46.4016 71.1447 46.3218C74.2744 46.2161 77.3226 45.2056 79.868 43.3753C80.9516 42.5953 81.9486 41.6628 82.8503 40.6783C83.4519 40.0231 84.5304 38.9693 84.4975 37.9882C84.4437 36.4491 77.7543 30.081 77.7543 30.081C79.7188 31.329 83.7536 34.1681 85.7182 37.2724C88.0537 36.1042 90.6563 33.2928 90.2315 24.694L90.2298 24.6957ZM81.2794 39.0351C81.2794 39.0351 76.844 45.4638 69.4749 44.1223C69.4749 44.1223 74.8466 44.592 81.2794 39.0351Z" fill="#F5CA3C"/>
<path d="M145.524 102.104C143.708 102.104 142.065 102.157 140.424 102.086C139.27 102.036 138.441 101.343 137.867 100.362C136.88 98.677 135.904 96.987 134.921 95.3006C134.711 94.9418 134.546 94.7251 134.031 93.8845C133.844 94.2641 133.513 94.6523 133.249 94.999C131.592 97.1864 130.499 98.4673 128.755 100.185C127.16 101.416 126.191 102.081 124.379 102.171C123.139 102.211 121.861 102.159 120.346 102.159C120.736 101.696 120.979 101.384 121.246 101.093C124.407 97.6509 127.552 94.1947 130.747 90.7854C131.38 90.1094 131.441 89.6085 130.964 88.8025C129.031 85.544 127.176 82.2403 125.294 78.9506C125.11 78.6282 124.958 78.2885 124.741 77.8569C126.532 77.8569 128.228 77.6749 129.858 77.9314C130.709 78.0649 131.654 78.8137 132.18 79.5538C133.263 81.0739 134.094 82.7742 135.032 84.3983C135.217 84.7207 135.422 85.0327 135.703 85.485C136.858 84.2197 137.931 83.0429 139.003 81.8642C139.261 81.5817 139.498 81.3026 139.757 80.9993C142.602 77.5414 145.245 77.4305 148.915 77.9089C148.463 78.4098 148.066 78.8535 147.663 79.2938C144.893 82.3149 142.153 85.3637 139.33 88.3363C138.486 89.2254 138.368 89.8633 139.048 90.957C141.149 94.3369 143.103 97.8069 145.111 101.246C145.241 101.469 145.337 101.714 145.524 102.105V102.104Z" fill="#F5FAFD"/>
<path d="M2.66234 101.039C0.855605 101.034 0.030265 100.462 0.000788599 99.2368C-0.0321557 97.8987 0.968309 97.1187 2.77504 97.1101C5.63772 97.0962 8.50387 97.039 11.3648 97.1274C12.7242 97.169 13.3068 96.857 13.5079 95.3612C14.094 91.0124 14.9072 86.6966 15.6198 82.3651C15.8817 80.7688 15.4291 80.1881 13.801 80.1604C11.3475 80.1171 8.89227 80.1517 6.43879 80.1379C4.78117 80.1292 3.93503 79.5191 3.90555 78.3457C3.87261 77.0821 4.80892 76.2484 6.37117 76.2467C13.4264 76.2432 20.4852 76.1721 27.5387 76.2969C35.1818 76.4321 39.6639 81.9803 38.0393 89.267C36.6747 95.3855 32.7821 99.1536 26.7134 100.644C25.6349 100.909 24.4905 100.993 23.3739 101.008C19.9997 101.053 16.6255 101.026 13.2496 101.026C13.2496 101.032 6.19431 101.052 2.6658 101.041L2.66234 101.039ZM19.8402 95.6455C21.8116 95.5449 23.4918 95.5571 25.1442 95.3508C27.4035 95.0683 29.153 93.8238 30.3528 91.9241C31.8509 89.5513 32.4266 86.9687 31.095 84.3601C29.8413 81.9041 27.4191 81.7013 25.0003 81.6857C22.2035 81.6666 22.1705 81.6631 21.692 84.4138C21.0643 88.026 20.4956 91.6485 19.8384 95.6472L19.8402 95.6455Z" fill="#F5FAFD"/>
<path d="M51.5742 101.026C51.5118 100.336 51.4615 99.7897 51.3956 99.0738C51.0332 99.3321 50.7835 99.5054 50.539 99.6874C48.3595 101.315 45.8904 101.83 43.2636 101.367C39.8668 100.769 38.0983 98.3285 38.5473 94.5725C39.0693 90.2151 39.8564 85.8906 40.5361 81.4984H46.5996C46.3447 83.2161 46.0985 84.8887 45.8454 86.5613C45.5003 88.8319 45.1241 91.0973 44.8085 93.3714C44.4565 95.9019 46.0136 97.2764 48.4878 96.6663C50.4922 96.1723 51.7909 94.6696 52.1082 92.6035C52.6752 88.9099 53.2856 85.2215 53.8855 81.488H59.9646C59.7392 82.9613 59.5311 84.4034 59.2988 85.8403C58.5324 90.5999 57.74 95.356 57.0065 100.122C56.899 100.819 56.6962 101.072 55.9714 101.045C54.534 100.987 53.0931 101.027 51.5725 101.027L51.5742 101.026Z" fill="#F5FAFD"/>
<path d="M76.873 81.3564C76.5939 83.1174 76.3251 84.8177 76.0928 86.2841C74.6311 86.3985 73.2301 86.3049 71.947 86.6515C69.7033 87.2564 68.4185 88.8822 68.063 91.1979C67.5966 94.2415 67.1458 97.2869 66.6499 100.325C66.6083 100.584 66.2823 100.993 66.0777 101C64.3195 101.053 62.5579 101.031 60.6367 101.031C61.658 94.6003 62.6602 88.2825 63.6693 81.9283H68.7739C68.8121 82.6996 68.8468 83.4276 68.8988 84.4867C71.1026 81.9665 73.6254 80.748 76.8713 81.3581L76.873 81.3564Z" fill="#F5FAFD"/>
<path d="M82.6514 100.98H76.6191C77.6421 94.4389 78.6547 87.9565 79.6708 81.4619H85.7256C84.6974 87.9929 83.6761 94.4719 82.6497 100.98H82.6514Z" fill="#F5FAFD"/>
<path d="M83.533 79.2451C81.7662 79.2573 80.5039 78.1116 80.4866 76.4788C80.4657 74.7005 81.8962 73.3173 83.774 73.3C85.5946 73.2827 86.9246 74.4405 86.9558 76.0663C86.9887 77.829 85.4802 79.2313 83.533 79.2451Z" fill="#F5FAFD"/>
<path d="M126.811 86.4626C126.764 88.5772 126.362 90.6831 126.07 92.789C126.062 92.8618 126.05 92.9381 126.041 93.0109L118.797 101.074H118.793C119.038 99.4604 119.265 97.8901 119.504 96.3197C119.86 93.9919 120.258 91.6676 120.574 89.3346C120.737 88.1612 120.903 86.8907 119.795 86.0639C118.589 85.1644 117.217 85.362 115.955 85.9391C114.276 86.7 113.37 88.104 113.09 89.9066C112.551 93.4026 112.05 96.9004 111.488 100.393C111.445 100.667 111.072 101.095 110.847 101.098C109.049 101.159 107.251 101.133 105.34 101.133C106.368 94.5639 107.374 88.1352 108.385 81.6753H113.449C113.539 82.2524 113.633 82.84 113.753 83.5975C115.367 81.9838 117.208 81.0981 119.327 80.9612C120.453 80.8884 121.635 80.9265 122.731 81.1743C125.321 81.7689 126.875 83.6911 126.811 86.4608V86.4626Z" fill="#F5FAFD"/>
<path d="M103.032 101.09C101.447 101.09 99.977 101.112 98.5083 101.064C98.2951 101.057 98.0176 100.738 97.9067 100.499C97.7749 100.22 97.794 99.8711 97.7194 99.3737C97.331 99.6389 97.0536 99.8278 96.7779 100.02C94.5845 101.549 92.1345 101.991 89.5666 101.478C87.2709 101.02 85.6219 99.7013 85.2041 97.2608C84.7706 94.7302 85.6427 92.6763 87.7304 91.1909C89.5492 89.8961 91.6837 89.4836 93.8424 89.2514C95.3058 89.0936 96.7831 89.052 98.2552 89.0139C98.843 89 99.0459 88.7851 99.0961 88.2149C99.2401 86.6081 98.4372 85.5283 96.7831 85.2371C94.7388 84.8766 92.8159 85.3186 90.9606 86.1592C90.6381 86.3065 90.3208 86.4677 89.8977 86.674C89.3672 85.407 88.8574 84.1885 88.3251 82.9145C90.5428 81.5851 92.8957 80.8831 95.363 80.8346C97.1385 80.7999 98.9886 80.9316 100.69 81.4066C103.729 82.2576 105.375 84.9372 104.957 88.0675C104.381 92.3782 103.691 96.675 103.032 101.09ZM98.3176 92.2326C96.9045 92.3713 95.559 92.3851 94.2707 92.6676C93.35 92.8687 92.4154 93.3038 91.6594 93.8653C90.8861 94.4373 90.6693 95.3889 91.0179 96.3526C91.3456 97.2573 92.0669 97.6889 92.9824 97.7167C93.6586 97.7375 94.366 97.7201 95.011 97.5416C97.2443 96.9194 98.1165 95.531 98.3176 92.2326Z" fill="#F5FAFD"/>
</svg>
